<svg width="24" height="24" viewBox="0 0 24 24" fill="none" xmlns="http://www.w3.org/2000/svg">
<path fill-rule="evenodd" clip-rule="evenodd" d="M15.854 2.146C15.76 2.053 15.633 2 15.5 2H6.5C5.122 2 4 3.121 4 4.5V19.5C4 20.879 5.122 22 6.5 22H17.5C18.878 22 20 20.879 20 19.5V6.5C20 6.367 19.947 6.24 19.854 6.146L15.854 2.146ZM19 19.5C19 20.327 18.327 21 17.5 21H6.5C5.673 21 5 20.327 5 19.5V4.5C5 3.673 5.673 3 6.5 3H14.8788C15.144 3 15.3984 3.10536 15.5859 3.29289L18.7071 6.41411C18.8946 6.60164 19 6.856 19 7.12121V19.5ZM14 8H8C7.724 8 7.5 7.776 7.5 7.5C7.5 7.224 7.724 7 8 7H14C14.276 7 14.5 7.224 14.5 7.5C14.5 7.776 14.276 8 14 8ZM7.5 11.5C7.5 11.776 7.724 12 8 12H16C16.276 12 16.5 11.776 16.5 11.5C16.5 11.224 16.276 11 16 11H8C7.724 11 7.5 11.224 7.5 11.5ZM8 15H16C16.276 15 16.5 15.224 16.5 15.5C16.5 15.776 16.276 16 16 16H8C7.724 16 7.5 15.776 7.5 15.5C7.5 15.224 7.724 15 8 15Z" fill="#0B1117"/>
</svg>
