<svg width="18" height="18" viewBox="0 0 18 18" fill="none" xmlns="http://www.w3.org/2000/svg">
<path fill-rule="evenodd" clip-rule="evenodd" d="M11.8905 1.6095C11.82 1.53975 11.7247 1.5 11.625 1.5H4.875C3.8415 1.5 3 2.34075 3 3.375V14.625C3 15.6593 3.8415 16.5 4.875 16.5H13.125C14.1585 16.5 15 15.6593 15 14.625V4.875C15 4.77525 14.9602 4.68 14.8905 4.6095L11.8905 1.6095ZM14.25 14.625C14.25 15.2452 13.7452 15.75 13.125 15.75H4.875C4.25475 15.75 3.75 15.2452 3.75 14.625V3.375C3.75 2.75475 4.25475 2.25 4.875 2.25H11.0555C11.3208 2.25 11.5751 2.35536 11.7626 2.54289L13.9571 4.73736C14.1446 4.92489 14.25 5.17925 14.25 5.44446V14.625ZM10.5 6H6C5.793 6 5.625 5.832 5.625 5.625C5.625 5.418 5.793 5.25 6 5.25H10.5C10.707 5.25 10.875 5.418 10.875 5.625C10.875 5.832 10.707 6 10.5 6ZM5.625 8.625C5.625 8.832 5.793 9 6 9H12C12.207 9 12.375 8.832 12.375 8.625C12.375 8.418 12.207 8.25 12 8.25H6C5.793 8.25 5.625 8.418 5.625 8.625ZM6 11.25H12C12.207 11.25 12.375 11.418 12.375 11.625C12.375 11.832 12.207 12 12 12H6C5.793 12 5.625 11.832 5.625 11.625C5.625 11.418 5.793 11.25 6 11.25Z" fill="#507CE1"/>
</svg>
