<svg width="24" height="24" viewBox="0 0 24 24" fill="none" xmlns="http://www.w3.org/2000/svg">
<path d="M5 4.5C5 3.39543 5.89543 2.5 7 2.5H16.1397C16.6889 2.5 17.2139 2.72583 17.5916 3.12451L18.5 4.08333L19.4519 5.08812C19.8038 5.45962 20 5.95188 20 6.46361V19.5C20 20.6046 19.1046 21.5 18 21.5H7C5.89543 21.5 5 20.6046 5 19.5V4.5Z" stroke="#507CE1"/>
<path d="M8 17L17 17" stroke="#507CE1" stroke-linecap="round"/>
<rect x="8" y="7" width="9" height="7" rx="1" stroke="#507CE1"/>
<path d="M8 13L10.7227 11.1849C10.8906 11.0729 11.1094 11.0729 11.2774 11.1849L12.2226 11.8151C12.3906 11.9271 12.6094 11.9271 12.7774 11.8151L15.2227 10.1849C15.3906 10.0729 15.6094 10.0729 15.7774 10.1849L17 11" stroke="#507CE1" stroke-linecap="round"/>
</svg>
