<svg width="34" height="34" viewBox="0 0 34 34" fill="none" xmlns="http://www.w3.org/2000/svg">
<path fill-rule="evenodd" clip-rule="evenodd" d="M16.3186 33.6536C16.2696 33.6626 16.219 33.6673 16.1673 33.6673C16.0856 33.6673 16.0066 33.6555 15.9319 33.6336C7.22519 33.0826 0.333984 25.8464 0.333984 17.0007C0.333984 7.79591 7.79591 0.333984 17.0007 0.333984C26.2054 0.333984 33.6673 7.79591 33.6673 17.0007C33.6673 26.2054 26.2054 33.6673 17.0007 33.6673C16.7722 33.6673 16.5448 33.6627 16.3186 33.6536ZM15.334 29.8458V31.9091C7.83407 31.08 2.00065 24.7216 2.00065 17.0007C2.00065 15.3487 2.26769 13.7592 2.76094 12.2728L7.24473 16.7566C7.57017 17.082 8.0978 17.082 8.42324 16.7566L10.0899 15.0899C10.2462 14.9336 10.334 14.7217 10.334 14.5007V13.6673H12.834C14.2147 13.6673 15.334 12.548 15.334 11.1673V9.50065C15.334 9.04041 15.7071 8.66732 16.1673 8.66732H17.834C20.1352 8.66732 22.0007 6.80184 22.0007 4.50065V2.85418C27.8266 4.91336 32.0007 10.4696 32.0007 17.0007C32.0007 20.0842 31.0702 22.9505 29.4747 25.334H26.1673C25.7071 25.334 25.334 24.9609 25.334 24.5007C25.334 23.1199 24.2147 22.0007 22.834 22.0007C22.3737 22.0007 22.0007 21.6276 22.0007 21.1673V19.5007C22.0007 18.1199 20.8814 17.0007 19.5007 17.0007H11.1673C10.7071 17.0007 10.334 17.3737 10.334 17.834V19.5007C10.334 19.7217 10.4218 19.9336 10.5781 20.0899L12.0007 21.5125V26.1673C12.0007 26.3883 12.0884 26.6003 12.2447 26.7566L15.334 29.8458ZM28.1812 27.0007C25.4346 30.0694 21.4431 32.0007 17.0007 32.0007V29.5007C17.0007 29.2796 16.9129 29.0677 16.7566 28.9114L13.6673 25.8221V21.1673C13.6673 20.9463 13.5795 20.7343 13.4232 20.5781L12.0007 19.1555V18.6673H19.5007C19.9609 18.6673 20.334 19.0404 20.334 19.5007V21.1673C20.334 22.548 21.4533 23.6673 22.834 23.6673C23.2942 23.6673 23.6673 24.0404 23.6673 24.5007C23.6673 25.8814 24.7866 27.0007 26.1673 27.0007H28.1812ZM7.83398 14.9888L3.4355 10.5903C5.83918 5.51274 11.0098 2.00065 17.0007 2.00065C18.1463 2.00065 19.2619 2.12909 20.334 2.37235V4.50065C20.334 5.88136 19.2147 7.00065 17.834 7.00065H16.1673C14.7866 7.00065 13.6673 8.11994 13.6673 9.50065V11.1673C13.6673 11.6276 13.2942 12.0007 12.834 12.0007H9.50065C9.04041 12.0007 8.66732 12.3737 8.66732 12.834V14.1555L7.83398 14.9888Z" fill="url(#paint0_linear_4875_438)"/>
<defs>
<linearGradient id="paint0_linear_4875_438" x1="32.7095" y1="46.7108" x2="-1.3022" y2="45.1793" gradientUnits="userSpaceOnUse">
<stop offset="0.0416667" stop-color="#ED35EC"/>
<stop offset="0.387036" stop-color="#ED35C5"/>
<stop offset="0.757473" stop-color="#7879F1"/>
<stop offset="1" stop-color="#5E60F0"/>
</linearGradient>
</defs>
</svg>
