<svg width="18" height="18" viewBox="0 0 18 18" fill="none" xmlns="http://www.w3.org/2000/svg">
<path d="M9 15.75C5.27208 15.75 2.25 12.7279 2.25 9C2.25 5.27208 5.27208 2.25 9 2.25C12.7279 2.25 15.75 5.27208 15.75 9C15.75 12.7279 12.7279 15.75 9 15.75ZM9 15.075C12.3551 15.075 15.075 12.3551 15.075 9C15.075 5.64487 12.3551 2.925 9 2.925C5.64487 2.925 2.925 5.64487 2.925 9C2.925 12.3551 5.64487 15.075 9 15.075ZM6.3 6.85213C6.3 6.62857 6.36168 6.40934 6.47826 6.21857C6.82817 5.646 7.57599 5.46549 8.14856 5.8154L11.8518 8.07846C11.9979 8.1678 12.1208 8.29064 12.2101 8.43683C12.5212 8.94579 12.3607 9.61052 11.8518 9.92154L8.14856 12.1846C7.9578 12.3012 7.73857 12.3629 7.515 12.3629C6.84397 12.3629 6.3 11.8189 6.3 11.1479V6.85213ZM6.975 6.85213V11.1479C6.975 11.4461 7.21677 11.6879 7.515 11.6879C7.61436 11.6879 7.7118 11.6605 7.79658 11.6086L11.4998 9.34558C11.6906 9.22894 11.7508 8.97967 11.6342 8.78881C11.6007 8.73399 11.5546 8.68792 11.4998 8.65442L7.79658 6.39136C7.54211 6.23585 7.20974 6.31607 7.05423 6.57055C7.00242 6.65533 6.975 6.75277 6.975 6.85213Z" fill="#507CE1"/>
</svg>
